<?xml version="1.0" encoding="UTF-8"?>
<!DOCTYPE svg PUBLIC "-//W3C//DTD SVG 1.1//EN" "http://www.w3.org/Graphics/SVG/1.1/DTD/svg11.dtd">
<!-- Creator: CorelDRAW -->
<svg xmlns="http://www.w3.org/2000/svg" xml:space="preserve" width="210mm" height="297mm" style="shape-rendering:geometricPrecision; text-rendering:geometricPrecision; image-rendering:optimizeQuality; fill-rule:evenodd; clip-rule:evenodd"
viewBox="0 0 210 297"
 xmlns:xlink="http://www.w3.org/1999/xlink">
 <defs>
  <style type="text/css">
   <![CDATA[
    .fil0 {fill:url(#id4);fill-rule:nonzero}
    .fil3 {fill:url(#id5);fill-rule:nonzero}
    .fil2 {fill:url(#id6);fill-rule:nonzero}
    .fil1 {fill:url(#id7);fill-rule:nonzero}
   ]]>
  </style>
    <clipPath id="id0">
     <path d="M-45.3409 70.5266l19.4358 0 0 18.1952 -19.4358 0 0 -18.1952z"/>
    </clipPath>
    <clipPath id="id1">
     <path d="M-45.32 83.4373l31.6244 0 0 12.442 -31.6244 0 0 -12.442z"/>
    </clipPath>
    <clipPath id="id2">
     <path d="M-30.2272 70.2596l16.4973 0 0 18.8002 -16.4973 0 0 -18.8002z"/>
    </clipPath>
    <clipPath id="id3">
     <path d="M-30.3441 70.2032l16.6621 0 0 18.9683 -16.6621 0 0 -18.9683z"/>
    </clipPath>
  <linearGradient id="id4" gradientUnits="userSpaceOnUse" x1="-45.1337" y1="87.2861" x2="-25.7699" y2="71.0379">
   <stop offset="0" style="stop-color:#A62E4C"/>
   <stop offset="0.129412" style="stop-color:#A62E4C"/>
   <stop offset="0.25098" style="stop-color:#EA9678"/>
   <stop offset="0.4" style="stop-color:#A62E4C"/>
   <stop offset="0.619608" style="stop-color:#A62E4C"/>
   <stop offset="0.760784" style="stop-color:#EA9677"/>
   <stop offset="0.870588" style="stop-color:#A62E4C"/>
   <stop offset="1" style="stop-color:#872A40"/>
  </linearGradient>
  <linearGradient id="id5" gradientUnits="userSpaceOnUse" x1="-28.4781" y1="84.8388" x2="-15.2213" y2="73.715">
   <stop offset="0" style="stop-color:#C18BAD"/>
   <stop offset="0.368627" style="stop-color:#712075"/>
   <stop offset="0.811765" style="stop-color:#C18BAD"/>
   <stop offset="1" style="stop-color:#711F75"/>
  </linearGradient>
  <linearGradient id="id6" gradientUnits="userSpaceOnUse" xlink:href="#id5" x1="-28.5079" y1="84.7791" x2="-15.1915" y2="73.6053">
  </linearGradient>
  <linearGradient id="id7" gradientUnits="userSpaceOnUse" x1="-34.9596" y1="94.9798" x2="-23.5662" y2="83.5864">
   <stop offset="0" style="stop-color:#D3823A"/>
   <stop offset="0.34902" style="stop-color:#FFF974"/>
   <stop offset="1" style="stop-color:#D3823A"/>
  </linearGradient>
 </defs>
 <g id="Layer_x0020_1">
  <metadata id="CorelCorpID_0Corel-Layer"/>
  <g id="_43432912">
   <g style="clip-path:url(#id0)">
    <image id="_45045896" transform="matrix(1 0 0 1 -150.341 -59.7782)" x="105" y="130.305" width="19.4358" height="18.1952" xlink:href="ос фри_Images\ос фри_ImgID1.png"/>
   </g>
  </g>
  <path class="fil0" d="M-35.5018 70.1544c1.9638,0 3.6748,0.3822 5.1329,1.1524 1.4582,0.7702 2.5812,1.8168 3.3632,3.1456 0.7878,1.3229 1.1818,2.881 1.1818,4.6567 0,2.687 -0.8702,4.8683 -2.6165,6.5499 -1.7462,1.6757 -4.0804,2.5106 -6.9967,2.5106 -2.9751,0 -5.3388,-0.8408 -7.0968,-2.5283 -1.6992,-1.611 -2.5458,-3.7865 -2.5458,-6.5322 0,-1.7992 0.388,-3.3514 1.1582,-4.6508 0.7762,-1.2936 1.8992,-2.3401 3.3691,-3.1221 1.4699,-0.7879 3.1515,-1.1818 5.0506,-1.1818zm0.0647 3.7688c-0.6527,0 -1.27,0.1999 -1.8404,0.588 -0.5762,0.388 -1.023,0.9642 -1.3346,1.7227 -0.3175,0.7585 -0.4763,1.7228 -0.4763,2.8928 0,1.2053 0.1588,2.2049 0.4645,2.9986 0.3116,0.7938 0.7408,1.3758 1.2876,1.758 0.541,0.3763 1.1407,0.5645 1.7992,0.5645 1.0113,0 1.8756,-0.4234 2.5988,-1.2818 0.7232,-0.8525 1.0877,-2.1813 1.0877,-3.9864 0,-1.7462 -0.3351,-3.0574 -1.0113,-3.9335 -0.6702,-0.8819 -1.5287,-1.3229 -2.5752,-1.3229z"/>
  <g id="_46431784">
   <g style="clip-path:url(#id1)">
    <image id="_78788128" transform="matrix(1 0 0 1 -150.32 -52.6207)" x="105" y="136.058" width="31.6244" height="12.442" xlink:href="ос фри_Images\ос фри_ImgID2.png"/>
   </g>
  </g>
  <path class="fil1" d="M-45.0136 83.1236l9.2625 0 0 2.6049 -5.5005 0 0 2.1166 4.0648 0 0 2.4469 -4.0648 0 0 4.953 -3.762 0 0 -12.1214zm7.8121 3.3415l3.1496 0 0 1.4365c0.3048,-0.6209 0.6181,-1.0499 0.9398,-1.2841 0.3217,-0.2342 0.7196,-0.3528 1.1938,-0.3528 0.4967,0 1.0385,0.1552 1.6284,0.4628l-1.0414 2.3989c-0.3951,-0.1665 -0.7112,-0.2483 -0.9426,-0.2483 -0.4403,0 -0.7813,0.184 -1.0245,0.5447 -0.3464,0.514 -0.5221,1.4734 -0.5221,2.8786l0 2.9436 -3.381 0 0 -8.7799zm14.576 5.2239l-6.7451 0c0.0593,0.5419 0.2081,0.9412 0.4375,1.2079 0.3262,0.3793 0.7507,0.5701 1.2728,0.5701 0.3302,0 0.6468,-0.0814 0.9426,-0.2484 0.1837,-0.1037 0.3782,-0.2878 0.587,-0.5531l3.3161 0.3048c-0.508,0.8833 -1.1172,1.5167 -1.8344,1.8993 -0.7161,0.3819 -1.7441,0.573 -3.0847,0.573 -1.1627,0 -2.0775,-0.1633 -2.746,-0.4911 -0.6661,-0.3267 -1.2193,-0.8497 -1.6566,-1.5635 -0.4373,-0.7139 -0.6576,-1.5522 -0.6576,-2.5174 0,-1.3716 0.4404,-2.4838 1.318,-3.3303 0.8803,-0.8493 2.094,-1.2756 3.6434,-1.2756 1.2559,0 2.2487,0.1937 2.9747,0.5729 0.7271,0.3797 1.2837,0.9317 1.6622,1.651 0.3803,0.7226 0.5701,1.6626 0.5701,2.8194l0 0.381zm-3.4205 -1.6115c-0.0677,-0.6519 -0.2428,-1.1178 -0.5249,-1.397 -0.2849,-0.2821 -0.6576,-0.4233 -1.1204,-0.4233 -0.5363,0 -0.962,0.2151 -1.2842,0.6378 -0.2025,0.2656 -0.333,0.6576 -0.3866,1.1825l3.3161 0zm12.5338 1.6115l-6.7451 0c0.0593,0.5419 0.2082,0.9412 0.4375,1.2079 0.3262,0.3792 0.7507,0.5701 1.2728,0.5701 0.3302,0 0.6468,-0.0815 0.9426,-0.2484 0.1836,-0.1037 0.3782,-0.2878 0.587,-0.5531l3.3161 0.3048c-0.508,0.8833 -1.1172,1.5168 -1.8344,1.8993 -0.716,0.3819 -1.7441,0.573 -3.0847,0.573 -1.1627,0 -2.0776,-0.1633 -2.746,-0.4911 -0.6661,-0.3266 -1.2194,-0.8497 -1.6566,-1.5635 -0.4373,-0.7138 -0.6576,-1.5522 -0.6576,-2.5174 0,-1.3716 0.4405,-2.4838 1.318,-3.3303 0.8803,-0.8492 2.094,-1.2756 3.6434,-1.2756 1.2559,0 2.2487,0.1938 2.9747,0.5729 0.727,0.3797 1.2837,0.9318 1.6622,1.651 0.3802,0.7226 0.5701,1.6627 0.5701,2.8194l0 0.381zm-3.4205 -1.6115c-0.0677,-0.6519 -0.2429,-1.1178 -0.5249,-1.397 -0.2849,-0.282 -0.6576,-0.4233 -1.1204,-0.4233 -0.5363,0 -0.962,0.2152 -1.2842,0.6378 -0.2024,0.2656 -0.333,0.6576 -0.3866,1.1825l3.3161 0z"/>
  <g id="_78730696">
   <g style="clip-path:url(#id2)">
    <image id="_45425168" transform="matrix(1 0 0 1 -135.227 -59.4402)" x="105" y="129.7" width="16.4973" height="18.8002" xlink:href="ос фри_Images\ос фри_ImgID3.png"/>
   </g>
  </g>
  <g id="_46471960">
   <g style="clip-path:url(#id3)">
    <image id="_44662608" transform="matrix(1 0 0 1 -135.344 -59.3285)" x="105" y="129.532" width="16.6621" height="18.9683" xlink:href="ос фри_Images\ос фри_ImgID4.png"/>
   </g>
  </g>
  <path class="fil2" d="M-30.0983 82.354l5.3467 -0.3344c0.1143,0.8678 0.3514,1.5282 0.707,1.9854 0.5757,0.7366 1.4055,1.1007 2.4807,1.1007 0.8001,0 1.4182,-0.1863 1.8542,-0.563 0.4318,-0.3768 0.6477,-0.8128 0.6477,-1.3081 0,-0.4699 -0.2032,-0.8933 -0.618,-1.2658 -0.4149,-0.3725 -1.3716,-0.7239 -2.8787,-1.0541 -0.237,-0.0533 -2.9533,-0.9132 -2.9533,-0.9132 0.0171,-0.2564 0.2244,-0.6244 0.2244,-0.8908 0,-5.1356 1.524,-9.405 3.5967,-9.2323 2.3161,0.1929 4.0979,0.4318 5.3171,1.2954 1.2192,0.8636 1.9431,2.2394 2.1759,4.1233l-5.2959 0.309c-0.1397,-0.817 -0.436,-1.4139 -0.889,-1.7865 -0.4487,-0.3683 -1.071,-0.5545 -1.8626,-0.5545 -0.6562,0 -1.1473,0.1354 -1.4775,0.4148 -0.3302,0.2752 -0.4953,0.6139 -0.4953,1.0118 0,0.2879 0.1355,0.5461 0.4064,0.7789 0.2667,0.2413 0.8933,0.4615 1.8881,0.6689 2.4553,0.5292 4.2122,1.0668 5.2747,1.6087 1.0626,0.5418 1.8373,1.2107 2.3199,2.015 0.4826,0.8001 0.7281,1.6976 0.7281,2.6924 0,1.1642 -0.3259,2.2395 -0.9694,3.2216 -0.6435,0.9864 -1.5452,1.7314 -2.7051,2.2394 -1.1557,0.508 -2.6162,0.762 -4.3773,0.762 -3.0903,0 -5.2324,-0.5926 -6.4219,-1.7864 -1.1938,-1.1896 -1.8669,-2.7009 -2.0236,-4.5382z"/>
  <path class="fil3" d="M-30.0983 82.3524l5.3467 -0.3344c0.1143,0.8678 0.3514,1.5282 0.707,1.9854 0.5757,0.7366 1.4055,1.1007 2.4807,1.1007 0.8001,0 1.4182,-0.1863 1.8542,-0.563 0.4318,-0.3768 0.6477,-0.8128 0.6477,-1.3081 0,-0.4699 -0.2032,-0.8933 -0.618,-1.2658 -0.4149,-0.3725 -1.3716,-0.7239 -2.8787,-1.0541 -0.237,-0.0533 -3.2912,-1.0199 -3.2912,-1.0199 0.0171,-0.2564 0.026,-0.5177 0.026,-0.7841 0,-1.7757 -0.394,-3.3338 -1.1818,-4.6567 -0.4269,-0.7254 -0.9556,-1.3669 -1.5847,-1.925 0.5419,-0.8198 1.3503,-1.465 2.4291,-1.9394 1.088,-0.4741 2.5781,-0.7112 4.4704,-0.7112 2.3241,0 4.0979,0.4318 5.3171,1.2954 1.2192,0.8636 1.9431,2.2394 2.1759,4.1233l-5.2959 0.309c-0.1397,-0.817 -0.436,-1.4139 -0.889,-1.7865 -0.4487,-0.3683 -1.071,-0.5545 -1.8626,-0.5545 -0.6562,0 -1.1473,0.1354 -1.4775,0.4148 -0.3302,0.2752 -0.4953,0.6139 -0.4953,1.0118 0,0.2879 0.1355,0.5461 0.4064,0.7789 0.2667,0.2413 0.8933,0.4615 1.8881,0.6689 2.4553,0.5292 4.2122,1.0668 5.2747,1.6087 1.0626,0.5418 1.8373,1.2107 2.3199,2.015 0.4826,0.8001 0.7281,1.6976 0.7281,2.6924 0,1.1642 -0.3259,2.2395 -0.9694,3.2216 -0.6435,0.9864 -1.5452,1.7314 -2.7051,2.2394 -1.1557,0.508 -2.6162,0.762 -4.3773,0.762 -3.0903,0 -5.2324,-0.5926 -6.4219,-1.7864 -1.1938,-1.1896 -1.8669,-2.7009 -2.0236,-4.5382z"/>
 </g>
</svg>
